<?xml version="1.0" encoding="utf-8"?>
<!-- Generator: Adobe Illustrator 24.3.0, SVG Export Plug-In . SVG Version: 6.00 Build 0)  -->
<svg version="1.1" id="Layer_2" xmlns="http://www.w3.org/2000/svg" xmlns:xlink="http://www.w3.org/1999/xlink" x="0px" y="0px"
	 width="147.237px" height="125.099px" viewBox="0 0 147.237 125.099" enable-background="new 0 0 147.237 125.099"
	 xml:space="preserve">
<path fill="#53435B" d="M50.536,67.864h-16.59h-11h-5.47c-2.1,0-4.11,0.38-5.96,1.08v-51.74c0-3.15,2.56-5.71,5.71-5.71
	s5.72,2.56,5.72,5.71v5.3h11v-5.3c0-9.21-7.5-16.71-16.72-16.71c-9.22,0-16.71,7.5-16.71,16.71v67.63v4.77
	c0,1.27,0.07,2.53,0.2,3.77c1.89,17.54,16.77,31.23,34.8,31.23c17.61,0,31.94-14.33,31.94-31.94v-7.88
	C67.456,75.454,59.866,67.864,50.536,67.864z M56.456,92.664c0,11.54-9.39,20.94-20.94,20.94c-11.96,0-21.89-8.78-23.7-20.23
	c-0.2-1.23-0.3-2.49-0.3-3.77v-4.77c0-0.88,0.19-1.71,0.54-2.46c0.93-2.07,3.01-3.51,5.42-3.51h5.47h11h16.59
	c3.27,0,5.92,2.65,5.92,5.92V92.664z"/>
<path fill="#53435B" d="M79.78,84.785v7.88c0,17.61,14.33,31.94,31.94,31.94c18.03,0,32.91-13.69,34.8-31.23
	c0.13-1.24,0.2-2.5,0.2-3.77v-4.77v-67.63c0-9.21-7.49-16.71-16.71-16.71c-9.22,0-16.72,7.5-16.72,16.71v5.3h11v-5.3
	c0-3.15,2.57-5.71,5.72-5.71c3.15,0,5.71,2.56,5.71,5.71v51.74c-1.85-0.7-3.86-1.08-5.96-1.08h-5.47h-11H96.7
	C87.37,67.864,79.78,75.454,79.78,84.785z M90.78,84.785c0-3.27,2.65-5.92,5.92-5.92h16.59h11h5.47c2.41,0,4.49,1.44,5.42,3.51
	c0.35,0.75,0.54,1.58,0.54,2.46v4.77c0,1.28-0.1,2.54-0.3,3.77c-1.81,11.45-11.74,20.23-23.7,20.23c-11.55,0-20.94-9.4-20.94-20.94
	V84.785z"/>
<rect x="33.946" y="67.864" fill="#53435B" width="77.173" height="11"/>
</svg>
